<svg width="146" height="49" viewBox="0 0 146 49" fill="none" xmlns="http://www.w3.org/2000/svg">
<path d="M12.636 34.36C9.54 34.36 7.14 33.532 5.436 31.876C3.756 30.196 2.916 27.664 2.916 24.28V9.664C2.916 9.4 2.988 9.196 3.132 9.052C3.3 8.884 3.504 8.8 3.744 8.8H5.58C5.844 8.8 6.048 8.884 6.192 9.052C6.36 9.196 6.444 9.4 6.444 9.664V24.352C6.444 26.656 6.984 28.384 8.064 29.536C9.144 30.688 10.668 31.264 12.636 31.264C14.604 31.264 16.128 30.688 17.208 29.536C18.288 28.384 18.828 26.656 18.828 24.352V9.664C18.828 9.4 18.9 9.196 19.044 9.052C19.212 8.884 19.416 8.8 19.656 8.8H21.528C21.768 8.8 21.96 8.884 22.104 9.052C22.272 9.22 22.356 9.424 22.356 9.664V24.28C22.356 27.664 21.504 30.196 19.8 31.876C18.12 33.532 15.732 34.36 12.636 34.36ZM32.8022 34C32.5622 34 32.3582 33.928 32.1902 33.784C32.0462 33.616 31.9742 33.412 31.9742 33.172V9.664C31.9742 9.4 32.0462 9.196 32.1902 9.052C32.3582 8.884 32.5622 8.8 32.8022 8.8H41.5862C44.3462 8.8 46.5062 9.448 48.0662 10.744C49.6262 12.04 50.4062 13.912 50.4062 16.36C50.4062 18.184 49.9502 19.684 49.0382 20.86C48.1502 22.036 46.8902 22.852 45.2582 23.308L50.8022 32.884C50.8742 33.028 50.9102 33.16 50.9102 33.28C50.9102 33.472 50.8262 33.64 50.6582 33.784C50.5142 33.928 50.3462 34 50.1542 34H48.4262C48.0662 34 47.7782 33.916 47.5622 33.748C47.3702 33.58 47.1902 33.34 47.0222 33.028L41.8022 23.884H35.5022V33.172C35.5022 33.412 35.4182 33.616 35.2502 33.784C35.0822 33.928 34.8782 34 34.6382 34H32.8022ZM41.4422 20.824C45.0182 20.824 46.8062 19.324 46.8062 16.324C46.8062 13.324 45.0182 11.824 41.4422 11.824H35.5022V20.824H41.4422ZM59.992 34C59.752 34 59.548 33.928 59.38 33.784C59.236 33.616 59.164 33.412 59.164 33.172V9.664C59.164 9.4 59.236 9.196 59.38 9.052C59.548 8.884 59.752 8.8 59.992 8.8H61.792C62.176 8.8 62.488 8.992 62.728 9.376L70.324 23.92L77.992 9.376C78.04 9.232 78.136 9.1 78.28 8.98C78.448 8.86 78.652 8.8 78.892 8.8H80.656C80.92 8.8 81.124 8.884 81.268 9.052C81.436 9.196 81.52 9.4 81.52 9.664V33.172C81.52 33.412 81.436 33.616 81.268 33.784C81.1 33.928 80.896 34 80.656 34H78.892C78.652 34 78.448 33.928 78.28 33.784C78.136 33.616 78.064 33.412 78.064 33.172V15.46L72.052 27.196C71.812 27.7 71.428 27.952 70.9 27.952H69.784C69.256 27.952 68.872 27.7 68.632 27.196L62.584 15.46V33.172C62.584 33.412 62.5 33.616 62.332 33.784C62.188 33.928 61.996 34 61.756 34H59.992ZM89.6541 34C89.4621 34 89.2941 33.928 89.1501 33.784C89.0061 33.64 88.9341 33.472 88.9341 33.28C88.9341 33.088 88.9461 32.956 88.9701 32.884L97.8981 9.592C98.0901 9.064 98.4741 8.8 99.0501 8.8H101.498C102.074 8.8 102.458 9.064 102.65 9.592L111.542 32.884L111.614 33.28C111.614 33.472 111.542 33.64 111.398 33.784C111.254 33.928 111.086 34 110.894 34H109.058C108.794 34 108.59 33.94 108.446 33.82C108.302 33.676 108.206 33.532 108.158 33.388L106.178 28.276H94.3701L92.3901 33.388C92.3421 33.532 92.2341 33.676 92.0661 33.82C91.9221 33.94 91.7301 34 91.4901 34H89.6541ZM105.134 25.18L100.274 12.4L95.4141 25.18H105.134ZM119.891 34C119.651 34 119.447 33.928 119.279 33.784C119.135 33.616 119.063 33.412 119.063 33.172V9.664C119.063 9.4 119.135 9.196 119.279 9.052C119.447 8.884 119.651 8.8 119.891 8.8H121.547C121.979 8.8 122.279 8.968 122.447 9.304L134.399 27.664V9.664C134.399 9.4 134.471 9.196 134.615 9.052C134.783 8.884 134.987 8.8 135.227 8.8H136.955C137.219 8.8 137.423 8.884 137.567 9.052C137.735 9.196 137.819 9.4 137.819 9.664V33.136C137.819 33.376 137.735 33.58 137.567 33.748C137.423 33.916 137.231 34 136.991 34H135.263C134.903 34 134.615 33.832 134.399 33.496L122.483 15.316V33.172C122.483 33.412 122.399 33.616 122.231 33.784C122.063 33.928 121.859 34 121.619 34H119.891Z" fill="#488558"/>
<path d="M7.43 46C7.36333 46 7.30667 45.98 7.26 45.94C7.22 45.8933 7.2 45.8367 7.2 45.77V39.9H4.72V41.51C4.72 42.5833 4.64333 43.44 4.49 44.08C4.33667 44.72 4.09667 45.19 3.77 45.49C3.44333 45.79 3.01 45.9567 2.47 45.99C2.40333 45.9967 2.34667 45.9767 2.3 45.93C2.25333 45.8833 2.23 45.8233 2.23 45.75V45.31C2.23 45.25 2.24667 45.2 2.28 45.16C2.32 45.1133 2.37333 45.0867 2.44 45.08C2.87333 45.02 3.2 44.7 3.42 44.12C3.64667 43.54 3.76 42.6267 3.76 41.38V39.23C3.76 39.1633 3.78 39.11 3.82 39.07C3.86667 39.0233 3.92333 39 3.99 39H7.95C8.01667 39 8.07 39.0233 8.11 39.07C8.15667 39.11 8.18 39.1667 8.18 39.24V45.77C8.18 45.8367 8.15667 45.8933 8.11 45.94C8.07 45.98 8.01667 46 7.95 46H7.43ZM10.1508 46C10.0841 46 10.0274 45.98 9.98078 45.94C9.94078 45.8933 9.92078 45.8367 9.92078 45.77V39.24C9.92078 39.1667 9.94078 39.11 9.98078 39.07C10.0274 39.0233 10.0841 39 10.1508 39H14.2808C14.3474 39 14.4008 39.0233 14.4408 39.07C14.4874 39.11 14.5108 39.1667 14.5108 39.24V39.62C14.5108 39.6867 14.4908 39.7433 14.4508 39.79C14.4108 39.83 14.3541 39.85 14.2808 39.85H10.8808V42.04H14.0608C14.1274 42.04 14.1808 42.0633 14.2208 42.11C14.2674 42.15 14.2908 42.2067 14.2908 42.28V42.65C14.2908 42.7167 14.2674 42.7733 14.2208 42.82C14.1808 42.86 14.1274 42.88 14.0608 42.88H10.8808V45.15H14.3608C14.4341 45.15 14.4908 45.17 14.5308 45.21C14.5708 45.25 14.5908 45.3067 14.5908 45.38V45.77C14.5908 45.8367 14.5674 45.8933 14.5208 45.94C14.4808 45.98 14.4274 46 14.3608 46H10.1508ZM18.4369 46.1C17.5435 46.1 16.8635 45.86 16.3969 45.38C15.9369 44.9 15.6902 44.2367 15.6569 43.39C15.6502 43.21 15.6469 42.9167 15.6469 42.51C15.6469 42.0967 15.6502 41.7967 15.6569 41.61C15.6902 40.77 15.9402 40.11 16.4069 39.63C16.8735 39.1433 17.5502 38.9 18.4369 38.9C19.0302 38.9 19.5335 39.0067 19.9469 39.22C20.3602 39.4267 20.6735 39.7 20.8869 40.04C21.1002 40.38 21.2169 40.7433 21.2369 41.13V41.15C21.2369 41.2033 21.2135 41.25 21.1669 41.29C21.1269 41.3233 21.0802 41.34 21.0269 41.34H20.4769C20.3435 41.34 20.2602 41.2633 20.2269 41.11C20.1135 40.61 19.9102 40.26 19.6169 40.06C19.3235 39.8533 18.9302 39.75 18.4369 39.75C17.2902 39.75 16.6969 40.3867 16.6569 41.66C16.6502 41.84 16.6469 42.1167 16.6469 42.49C16.6469 42.8633 16.6502 43.1467 16.6569 43.34C16.6969 44.6133 17.2902 45.25 18.4369 45.25C18.9302 45.25 19.3235 45.15 19.6169 44.95C19.9169 44.7433 20.1202 44.39 20.2269 43.89C20.2469 43.8033 20.2769 43.7433 20.3169 43.71C20.3569 43.6767 20.4102 43.66 20.4769 43.66H21.0269C21.0869 43.66 21.1369 43.68 21.1769 43.72C21.2235 43.7533 21.2435 43.8 21.2369 43.86C21.2169 44.2533 21.1002 44.62 20.8869 44.96C20.6735 45.3 20.3602 45.5767 19.9469 45.79C19.5335 45.9967 19.0302 46.1 18.4369 46.1ZM22.807 46C22.7404 46 22.6837 45.98 22.637 45.94C22.597 45.8933 22.577 45.8367 22.577 45.77V39.24C22.577 39.1667 22.597 39.11 22.637 39.07C22.6837 39.0233 22.7404 39 22.807 39H23.317C23.3904 39 23.447 39.0233 23.487 39.07C23.5337 39.11 23.557 39.1667 23.557 39.24V42H26.997V39.24C26.997 39.1667 27.017 39.11 27.057 39.07C27.1037 39.0233 27.1604 39 27.227 39H27.737C27.8104 39 27.867 39.0233 27.907 39.07C27.9537 39.11 27.977 39.1667 27.977 39.24V45.77C27.977 45.8367 27.9537 45.8933 27.907 45.94C27.8604 45.98 27.8037 46 27.737 46H27.227C27.1604 46 27.1037 45.98 27.057 45.94C27.017 45.8933 26.997 45.8367 26.997 45.77V42.9H23.557V45.77C23.557 45.8367 23.5337 45.8933 23.487 45.94C23.4404 45.98 23.3837 46 23.317 46H22.807ZM29.9457 46C29.879 46 29.8224 45.98 29.7757 45.94C29.7357 45.8933 29.7157 45.8367 29.7157 45.77V39.23C29.7157 39.1633 29.7357 39.11 29.7757 39.07C29.8224 39.0233 29.879 39 29.9457 39H30.4557C30.5224 39 30.579 39.0233 30.6257 39.07C30.6724 39.11 30.6957 39.1633 30.6957 39.23V41.66H31.9757C32.709 41.66 33.2724 41.8433 33.6657 42.21C34.059 42.57 34.2557 43.1 34.2557 43.8C34.2557 44.1933 34.169 44.5567 33.9957 44.89C33.829 45.2233 33.5724 45.4933 33.2257 45.7C32.8857 45.9 32.469 46 31.9757 46H29.9457ZM35.4457 46C35.379 46 35.3224 45.98 35.2757 45.94C35.2357 45.8933 35.2157 45.8367 35.2157 45.77V39.23C35.2157 39.1633 35.2357 39.11 35.2757 39.07C35.3224 39.0233 35.379 39 35.4457 39H35.9757C36.0424 39 36.0957 39.0233 36.1357 39.07C36.1824 39.11 36.2057 39.1633 36.2057 39.23V45.77C36.2057 45.8367 36.1824 45.8933 36.1357 45.94C36.0957 45.98 36.0424 46 35.9757 46H35.4457ZM31.8957 45.16C32.3224 45.16 32.6557 45.0367 32.8957 44.79C33.1357 44.5367 33.2557 44.2 33.2557 43.78C33.2557 42.92 32.8024 42.49 31.8957 42.49H30.6957V45.16H31.8957ZM38.1781 46C38.1115 46 38.0548 45.98 38.0081 45.94C37.9681 45.8933 37.9481 45.8367 37.9481 45.77V39.24C37.9481 39.1667 37.9681 39.11 38.0081 39.07C38.0548 39.0233 38.1115 39 38.1781 39H42.3081C42.3748 39 42.4281 39.0233 42.4681 39.07C42.5148 39.11 42.5381 39.1667 42.5381 39.24V39.62C42.5381 39.6867 42.5181 39.7433 42.4781 39.79C42.4381 39.83 42.3815 39.85 42.3081 39.85H38.9081V42.04H42.0881C42.1548 42.04 42.2081 42.0633 42.2481 42.11C42.2948 42.15 42.3181 42.2067 42.3181 42.28V42.65C42.3181 42.7167 42.2948 42.7733 42.2481 42.82C42.2081 42.86 42.1548 42.88 42.0881 42.88H38.9081V45.15H42.3881C42.4615 45.15 42.5181 45.17 42.5581 45.21C42.5981 45.25 42.6181 45.3067 42.6181 45.38V45.77C42.6181 45.8367 42.5948 45.8933 42.5481 45.94C42.5081 45.98 42.4548 46 42.3881 46H38.1781ZM46.6938 46C46.6271 46 46.5704 45.98 46.5238 45.94C46.4838 45.8933 46.4638 45.8367 46.4638 45.77V39.24C46.4638 39.1667 46.4838 39.11 46.5238 39.07C46.5704 39.0233 46.6271 39 46.6938 39H49.2338C49.9871 39 50.5804 39.1833 51.0138 39.55C51.4471 39.9167 51.6638 40.4467 51.6638 41.14C51.6638 41.8333 51.4471 42.3633 51.0138 42.73C50.5871 43.09 49.9938 43.27 49.2338 43.27H47.4638V45.77C47.4638 45.8367 47.4404 45.8933 47.3938 45.94C47.3471 45.98 47.2904 46 47.2238 46H46.6938ZM49.1838 42.43C49.6704 42.43 50.0371 42.32 50.2838 42.1C50.5371 41.88 50.6638 41.56 50.6638 41.14C50.6638 40.72 50.5404 40.4 50.2938 40.18C50.0471 39.9533 49.6771 39.84 49.1838 39.84H47.4538V42.43H49.1838ZM53.1098 46C53.0431 46 52.9864 45.98 52.9398 45.94C52.8998 45.8933 52.8798 45.8367 52.8798 45.77V39.24C52.8798 39.1667 52.8998 39.11 52.9398 39.07C52.9864 39.0233 53.0431 39 53.1098 39H57.2398C57.3064 39 57.3598 39.0233 57.3998 39.07C57.4464 39.11 57.4698 39.1667 57.4698 39.24V39.62C57.4698 39.6867 57.4498 39.7433 57.4098 39.79C57.3698 39.83 57.3131 39.85 57.2398 39.85H53.8398V42.04H57.0198C57.0864 42.04 57.1398 42.0633 57.1798 42.11C57.2264 42.15 57.2498 42.2067 57.2498 42.28V42.65C57.2498 42.7167 57.2264 42.7733 57.1798 42.82C57.1398 42.86 57.0864 42.88 57.0198 42.88H53.8398V45.15H57.3198C57.3931 45.15 57.4498 45.17 57.4898 45.21C57.5298 45.25 57.5498 45.3067 57.5498 45.38V45.77C57.5498 45.8367 57.5264 45.8933 57.4798 45.94C57.4398 45.98 57.3864 46 57.3198 46H53.1098ZM59.1742 46C59.1076 46 59.0509 45.98 59.0042 45.94C58.9642 45.8933 58.9442 45.8367 58.9442 45.77V39.23C58.9442 39.1567 58.9642 39.1 59.0042 39.06C59.0509 39.02 59.1076 39 59.1742 39H59.6842C59.7509 39 59.8076 39.0233 59.8542 39.07C59.9009 39.11 59.9242 39.1633 59.9242 39.23V45.1H62.3742V39.23C62.3742 39.1633 62.3942 39.11 62.4342 39.07C62.4809 39.0233 62.5376 39 62.6042 39H63.1142C63.1809 39 63.2376 39.0233 63.2842 39.07C63.3309 39.11 63.3542 39.1633 63.3542 39.23V45.1H65.8042V39.23C65.8042 39.1633 65.8242 39.11 65.8642 39.07C65.9109 39.0233 65.9676 39 66.0342 39H66.5442C66.6176 39 66.6742 39.0233 66.7142 39.07C66.7609 39.11 66.7842 39.1633 66.7842 39.23V45.77C66.7842 45.8367 66.7609 45.8933 66.7142 45.94C66.6742 45.98 66.6176 46 66.5442 46H59.1742ZM68.7543 46C68.6876 46 68.631 45.98 68.5843 45.94C68.5443 45.8933 68.5243 45.8367 68.5243 45.77V39.24C68.5243 39.1667 68.5443 39.11 68.5843 39.07C68.631 39.0233 68.6876 39 68.7543 39H72.8843C72.951 39 73.0043 39.0233 73.0443 39.07C73.091 39.11 73.1143 39.1667 73.1143 39.24V39.62C73.1143 39.6867 73.0943 39.7433 73.0543 39.79C73.0143 39.83 72.9576 39.85 72.8843 39.85H69.4843V42.04H72.6643C72.731 42.04 72.7843 42.0633 72.8243 42.11C72.871 42.15 72.8943 42.2067 72.8943 42.28V42.65C72.8943 42.7167 72.871 42.7733 72.8243 42.82C72.7843 42.86 72.731 42.88 72.6643 42.88H69.4843V45.15H72.9643C73.0376 45.15 73.0943 45.17 73.1343 45.21C73.1743 45.25 73.1943 45.3067 73.1943 45.38V45.77C73.1943 45.8367 73.171 45.8933 73.1243 45.94C73.0843 45.98 73.031 46 72.9643 46H68.7543ZM74.8188 46C74.7521 46 74.6954 45.98 74.6488 45.94C74.6088 45.8933 74.5888 45.8367 74.5888 45.77V39.24C74.5888 39.1667 74.6088 39.11 74.6488 39.07C74.6954 39.0233 74.7521 39 74.8188 39H75.3288C75.4021 39 75.4588 39.0233 75.4988 39.07C75.5454 39.11 75.5688 39.1667 75.5688 39.24V42H79.0088V39.24C79.0088 39.1667 79.0288 39.11 79.0688 39.07C79.1154 39.0233 79.1721 39 79.2388 39H79.7488C79.8221 39 79.8788 39.0233 79.9188 39.07C79.9654 39.11 79.9888 39.1667 79.9888 39.24V45.77C79.9888 45.8367 79.9654 45.8933 79.9188 45.94C79.8721 45.98 79.8154 46 79.7488 46H79.2388C79.1721 46 79.1154 45.98 79.0688 45.94C79.0288 45.8933 79.0088 45.8367 79.0088 45.77V42.9H75.5688V45.77C75.5688 45.8367 75.5454 45.8933 75.4988 45.94C75.4521 45.98 75.3954 46 75.3288 46H74.8188ZM81.9574 46C81.8908 46 81.8341 45.98 81.7874 45.94C81.7474 45.8933 81.7274 45.8333 81.7274 45.76V39.24C81.7274 39.1667 81.7474 39.11 81.7874 39.07C81.8341 39.0233 81.8908 39 81.9574 39H82.4774C82.5441 39 82.5974 39.0233 82.6374 39.07C82.6841 39.1167 82.7074 39.1733 82.7074 39.24V44.41L86.4374 39.14C86.4908 39.0467 86.5741 39 86.6874 39H87.1774C87.2441 39 87.2974 39.0233 87.3374 39.07C87.3841 39.11 87.4074 39.1667 87.4074 39.24V45.77C87.4074 45.8367 87.3841 45.8933 87.3374 45.94C87.2974 45.98 87.2441 46 87.1774 46H86.6674C86.6008 46 86.5441 45.98 86.4974 45.94C86.4508 45.8933 86.4274 45.8367 86.4274 45.77V40.64L82.7074 45.86C82.6541 45.9533 82.5708 46 82.4574 46H81.9574ZM93.7793 39C93.846 39 93.8993 39.0233 93.9393 39.07C93.986 39.11 94.0093 39.1633 94.0093 39.23V45.77C94.0093 45.8367 93.986 45.8933 93.9393 45.94C93.8993 45.98 93.846 46 93.7793 46H93.2693C93.2026 46 93.146 45.98 93.0993 45.94C93.0526 45.8933 93.0293 45.8367 93.0293 45.77V43.34H91.6593L90.1493 45.73C90.096 45.8233 90.0426 45.8933 89.9893 45.94C89.936 45.98 89.8593 46 89.7593 46H89.2793C89.226 46 89.1793 45.98 89.1393 45.94C89.0993 45.9 89.0793 45.8533 89.0793 45.8C89.0793 45.7667 89.0893 45.73 89.1093 45.69L90.6593 43.25C90.1993 43.13 89.8426 42.8933 89.5893 42.54C89.336 42.1867 89.2093 41.7367 89.2093 41.19C89.2093 40.8033 89.2926 40.4433 89.4593 40.11C89.6326 39.7767 89.8893 39.51 90.2293 39.31C90.576 39.1033 90.996 39 91.4893 39H93.7793ZM93.0293 39.84H91.5693C91.1426 39.84 90.8093 39.9667 90.5693 40.22C90.3293 40.4667 90.2093 40.7967 90.2093 41.21C90.2093 42.07 90.6626 42.5 91.5693 42.5H93.0293V39.84Z" fill="#488558"/>
</svg>
