<svg width="205" height="64" viewBox="0 0 205 64" fill="none" xmlns="http://www.w3.org/2000/svg" xmlns:xlink="http://www.w3.org/1999/xlink">
<g clip-path="url(#clip0)">
<rect x="1" y="6" width="52" height="52" fill="url(#pattern0)"/>
<path d="M77.6735 38.36C74.5775 38.36 72.1775 37.532 70.4735 35.876C68.7935 34.196 67.9535 31.664 67.9535 28.28V13.664C67.9535 13.4 68.0255 13.196 68.1695 13.052C68.3375 12.884 68.5415 12.8 68.7815 12.8H70.6175C70.8815 12.8 71.0855 12.884 71.2295 13.052C71.3975 13.196 71.4815 13.4 71.4815 13.664V28.352C71.4815 30.656 72.0215 32.384 73.1015 33.536C74.1815 34.688 75.7055 35.264 77.6735 35.264C79.6415 35.264 81.1655 34.688 82.2455 33.536C83.3255 32.384 83.8655 30.656 83.8655 28.352V13.664C83.8655 13.4 83.9375 13.196 84.0815 13.052C84.2495 12.884 84.4535 12.8 84.6935 12.8H86.5655C86.8055 12.8 86.9975 12.884 87.1415 13.052C87.3095 13.22 87.3935 13.424 87.3935 13.664V28.28C87.3935 31.664 86.5415 34.196 84.8375 35.876C83.1575 37.532 80.7695 38.36 77.6735 38.36ZM97.8397 38C97.5997 38 97.3957 37.928 97.2277 37.784C97.0837 37.616 97.0117 37.412 97.0117 37.172V13.664C97.0117 13.4 97.0837 13.196 97.2277 13.052C97.3957 12.884 97.5997 12.8 97.8397 12.8H106.624C109.384 12.8 111.544 13.448 113.104 14.744C114.664 16.04 115.444 17.912 115.444 20.36C115.444 22.184 114.988 23.684 114.076 24.86C113.188 26.036 111.928 26.852 110.296 27.308L115.84 36.884C115.912 37.028 115.948 37.16 115.948 37.28C115.948 37.472 115.864 37.64 115.696 37.784C115.552 37.928 115.384 38 115.192 38H113.464C113.104 38 112.816 37.916 112.6 37.748C112.408 37.58 112.228 37.34 112.06 37.028L106.84 27.884H100.54V37.172C100.54 37.412 100.456 37.616 100.288 37.784C100.12 37.928 99.9157 38 99.6757 38H97.8397ZM106.48 24.824C110.056 24.824 111.844 23.324 111.844 20.324C111.844 17.324 110.056 15.824 106.48 15.824H100.54V24.824H106.48ZM125.03 38C124.79 38 124.586 37.928 124.418 37.784C124.274 37.616 124.202 37.412 124.202 37.172V13.664C124.202 13.4 124.274 13.196 124.418 13.052C124.586 12.884 124.79 12.8 125.03 12.8H126.83C127.214 12.8 127.526 12.992 127.766 13.376L135.362 27.92L143.03 13.376C143.078 13.232 143.174 13.1 143.318 12.98C143.486 12.86 143.69 12.8 143.93 12.8H145.694C145.958 12.8 146.162 12.884 146.306 13.052C146.474 13.196 146.558 13.4 146.558 13.664V37.172C146.558 37.412 146.474 37.616 146.306 37.784C146.138 37.928 145.934 38 145.694 38H143.93C143.69 38 143.486 37.928 143.318 37.784C143.174 37.616 143.102 37.412 143.102 37.172V19.46L137.09 31.196C136.85 31.7 136.466 31.952 135.938 31.952H134.822C134.294 31.952 133.91 31.7 133.67 31.196L127.622 19.46V37.172C127.622 37.412 127.538 37.616 127.37 37.784C127.226 37.928 127.034 38 126.794 38H125.03ZM154.692 38C154.5 38 154.332 37.928 154.188 37.784C154.044 37.64 153.972 37.472 153.972 37.28C153.972 37.088 153.984 36.956 154.008 36.884L162.936 13.592C163.128 13.064 163.512 12.8 164.088 12.8H166.536C167.112 12.8 167.496 13.064 167.688 13.592L176.58 36.884L176.652 37.28C176.652 37.472 176.58 37.64 176.436 37.784C176.292 37.928 176.124 38 175.932 38H174.096C173.832 38 173.628 37.94 173.484 37.82C173.34 37.676 173.244 37.532 173.196 37.388L171.216 32.276H159.408L157.428 37.388C157.38 37.532 157.272 37.676 157.104 37.82C156.96 37.94 156.768 38 156.528 38H154.692ZM170.172 29.18L165.312 16.4L160.452 29.18H170.172ZM184.929 38C184.689 38 184.485 37.928 184.317 37.784C184.173 37.616 184.101 37.412 184.101 37.172V13.664C184.101 13.4 184.173 13.196 184.317 13.052C184.485 12.884 184.689 12.8 184.929 12.8H186.585C187.017 12.8 187.317 12.968 187.485 13.304L199.437 31.664V13.664C199.437 13.4 199.509 13.196 199.653 13.052C199.821 12.884 200.025 12.8 200.265 12.8H201.993C202.257 12.8 202.461 12.884 202.605 13.052C202.773 13.196 202.857 13.4 202.857 13.664V37.136C202.857 37.376 202.773 37.58 202.605 37.748C202.461 37.916 202.269 38 202.029 38H200.301C199.941 38 199.653 37.832 199.437 37.496L187.521 19.316V37.172C187.521 37.412 187.437 37.616 187.269 37.784C187.101 37.928 186.897 38 186.657 38H184.929Z" fill="#488558"/>
<path d="M115.43 52C115.363 52 115.307 51.98 115.26 51.94C115.22 51.8933 115.2 51.8367 115.2 51.77V45.9H112.72V47.51C112.72 48.5833 112.643 49.44 112.49 50.08C112.337 50.72 112.097 51.19 111.77 51.49C111.443 51.79 111.01 51.9567 110.47 51.99C110.403 51.9967 110.347 51.9767 110.3 51.93C110.253 51.8833 110.23 51.8233 110.23 51.75V51.31C110.23 51.25 110.247 51.2 110.28 51.16C110.32 51.1133 110.373 51.0867 110.44 51.08C110.873 51.02 111.2 50.7 111.42 50.12C111.647 49.54 111.76 48.6267 111.76 47.38V45.23C111.76 45.1633 111.78 45.11 111.82 45.07C111.867 45.0233 111.923 45 111.99 45H115.95C116.017 45 116.07 45.0233 116.11 45.07C116.157 45.11 116.18 45.1667 116.18 45.24V51.77C116.18 51.8367 116.157 51.8933 116.11 51.94C116.07 51.98 116.017 52 115.95 52H115.43ZM118.151 52C118.084 52 118.027 51.98 117.981 51.94C117.941 51.8933 117.921 51.8367 117.921 51.77V45.24C117.921 45.1667 117.941 45.11 117.981 45.07C118.027 45.0233 118.084 45 118.151 45H122.281C122.347 45 122.401 45.0233 122.441 45.07C122.487 45.11 122.511 45.1667 122.511 45.24V45.62C122.511 45.6867 122.491 45.7433 122.451 45.79C122.411 45.83 122.354 45.85 122.281 45.85H118.881V48.04H122.061C122.127 48.04 122.181 48.0633 122.221 48.11C122.267 48.15 122.291 48.2067 122.291 48.28V48.65C122.291 48.7167 122.267 48.7733 122.221 48.82C122.181 48.86 122.127 48.88 122.061 48.88H118.881V51.15H122.361C122.434 51.15 122.491 51.17 122.531 51.21C122.571 51.25 122.591 51.3067 122.591 51.38V51.77C122.591 51.8367 122.567 51.8933 122.521 51.94C122.481 51.98 122.427 52 122.361 52H118.151ZM126.437 52.1C125.544 52.1 124.864 51.86 124.397 51.38C123.937 50.9 123.69 50.2367 123.657 49.39C123.65 49.21 123.647 48.9167 123.647 48.51C123.647 48.0967 123.65 47.7967 123.657 47.61C123.69 46.77 123.94 46.11 124.407 45.63C124.874 45.1433 125.55 44.9 126.437 44.9C127.03 44.9 127.534 45.0067 127.947 45.22C128.36 45.4267 128.674 45.7 128.887 46.04C129.1 46.38 129.217 46.7433 129.237 47.13V47.15C129.237 47.2033 129.214 47.25 129.167 47.29C129.127 47.3233 129.08 47.34 129.027 47.34H128.477C128.344 47.34 128.26 47.2633 128.227 47.11C128.114 46.61 127.91 46.26 127.617 46.06C127.324 45.8533 126.93 45.75 126.437 45.75C125.29 45.75 124.697 46.3867 124.657 47.66C124.65 47.84 124.647 48.1167 124.647 48.49C124.647 48.8633 124.65 49.1467 124.657 49.34C124.697 50.6133 125.29 51.25 126.437 51.25C126.93 51.25 127.324 51.15 127.617 50.95C127.917 50.7433 128.12 50.39 128.227 49.89C128.247 49.8033 128.277 49.7433 128.317 49.71C128.357 49.6767 128.41 49.66 128.477 49.66H129.027C129.087 49.66 129.137 49.68 129.177 49.72C129.224 49.7533 129.244 49.8 129.237 49.86C129.217 50.2533 129.1 50.62 128.887 50.96C128.674 51.3 128.36 51.5767 127.947 51.79C127.534 51.9967 127.03 52.1 126.437 52.1ZM130.807 52C130.74 52 130.684 51.98 130.637 51.94C130.597 51.8933 130.577 51.8367 130.577 51.77V45.24C130.577 45.1667 130.597 45.11 130.637 45.07C130.684 45.0233 130.74 45 130.807 45H131.317C131.39 45 131.447 45.0233 131.487 45.07C131.534 45.11 131.557 45.1667 131.557 45.24V48H134.997V45.24C134.997 45.1667 135.017 45.11 135.057 45.07C135.104 45.0233 135.16 45 135.227 45H135.737C135.81 45 135.867 45.0233 135.907 45.07C135.954 45.11 135.977 45.1667 135.977 45.24V51.77C135.977 51.8367 135.954 51.8933 135.907 51.94C135.86 51.98 135.804 52 135.737 52H135.227C135.16 52 135.104 51.98 135.057 51.94C135.017 51.8933 134.997 51.8367 134.997 51.77V48.9H131.557V51.77C131.557 51.8367 131.534 51.8933 131.487 51.94C131.44 51.98 131.384 52 131.317 52H130.807ZM137.946 52C137.879 52 137.822 51.98 137.776 51.94C137.736 51.8933 137.716 51.8367 137.716 51.77V45.23C137.716 45.1633 137.736 45.11 137.776 45.07C137.822 45.0233 137.879 45 137.946 45H138.456C138.522 45 138.579 45.0233 138.626 45.07C138.672 45.11 138.696 45.1633 138.696 45.23V47.66H139.976C140.709 47.66 141.272 47.8433 141.666 48.21C142.059 48.57 142.256 49.1 142.256 49.8C142.256 50.1933 142.169 50.5567 141.996 50.89C141.829 51.2233 141.572 51.4933 141.226 51.7C140.886 51.9 140.469 52 139.976 52H137.946ZM143.446 52C143.379 52 143.322 51.98 143.276 51.94C143.236 51.8933 143.216 51.8367 143.216 51.77V45.23C143.216 45.1633 143.236 45.11 143.276 45.07C143.322 45.0233 143.379 45 143.446 45H143.976C144.042 45 144.096 45.0233 144.136 45.07C144.182 45.11 144.206 45.1633 144.206 45.23V51.77C144.206 51.8367 144.182 51.8933 144.136 51.94C144.096 51.98 144.042 52 143.976 52H143.446ZM139.896 51.16C140.322 51.16 140.656 51.0367 140.896 50.79C141.136 50.5367 141.256 50.2 141.256 49.78C141.256 48.92 140.802 48.49 139.896 48.49H138.696V51.16H139.896ZM146.178 52C146.111 52 146.055 51.98 146.008 51.94C145.968 51.8933 145.948 51.8367 145.948 51.77V45.24C145.948 45.1667 145.968 45.11 146.008 45.07C146.055 45.0233 146.111 45 146.178 45H150.308C150.375 45 150.428 45.0233 150.468 45.07C150.515 45.11 150.538 45.1667 150.538 45.24V45.62C150.538 45.6867 150.518 45.7433 150.478 45.79C150.438 45.83 150.381 45.85 150.308 45.85H146.908V48.04H150.088C150.155 48.04 150.208 48.0633 150.248 48.11C150.295 48.15 150.318 48.2067 150.318 48.28V48.65C150.318 48.7167 150.295 48.7733 150.248 48.82C150.208 48.86 150.155 48.88 150.088 48.88H146.908V51.15H150.388C150.461 51.15 150.518 51.17 150.558 51.21C150.598 51.25 150.618 51.3067 150.618 51.38V51.77C150.618 51.8367 150.595 51.8933 150.548 51.94C150.508 51.98 150.455 52 150.388 52H146.178ZM154.694 52C154.627 52 154.57 51.98 154.524 51.94C154.484 51.8933 154.464 51.8367 154.464 51.77V45.24C154.464 45.1667 154.484 45.11 154.524 45.07C154.57 45.0233 154.627 45 154.694 45H157.234C157.987 45 158.58 45.1833 159.014 45.55C159.447 45.9167 159.664 46.4467 159.664 47.14C159.664 47.8333 159.447 48.3633 159.014 48.73C158.587 49.09 157.994 49.27 157.234 49.27H155.464V51.77C155.464 51.8367 155.44 51.8933 155.394 51.94C155.347 51.98 155.29 52 155.224 52H154.694ZM157.184 48.43C157.67 48.43 158.037 48.32 158.284 48.1C158.537 47.88 158.664 47.56 158.664 47.14C158.664 46.72 158.54 46.4 158.294 46.18C158.047 45.9533 157.677 45.84 157.184 45.84H155.454V48.43H157.184ZM161.11 52C161.043 52 160.986 51.98 160.94 51.94C160.9 51.8933 160.88 51.8367 160.88 51.77V45.24C160.88 45.1667 160.9 45.11 160.94 45.07C160.986 45.0233 161.043 45 161.11 45H165.24C165.306 45 165.36 45.0233 165.4 45.07C165.446 45.11 165.47 45.1667 165.47 45.24V45.62C165.47 45.6867 165.45 45.7433 165.41 45.79C165.37 45.83 165.313 45.85 165.24 45.85H161.84V48.04H165.02C165.086 48.04 165.14 48.0633 165.18 48.11C165.226 48.15 165.25 48.2067 165.25 48.28V48.65C165.25 48.7167 165.226 48.7733 165.18 48.82C165.14 48.86 165.086 48.88 165.02 48.88H161.84V51.15H165.32C165.393 51.15 165.45 51.17 165.49 51.21C165.53 51.25 165.55 51.3067 165.55 51.38V51.77C165.55 51.8367 165.526 51.8933 165.48 51.94C165.44 51.98 165.386 52 165.32 52H161.11ZM167.174 52C167.108 52 167.051 51.98 167.004 51.94C166.964 51.8933 166.944 51.8367 166.944 51.77V45.23C166.944 45.1567 166.964 45.1 167.004 45.06C167.051 45.02 167.108 45 167.174 45H167.684C167.751 45 167.808 45.0233 167.854 45.07C167.901 45.11 167.924 45.1633 167.924 45.23V51.1H170.374V45.23C170.374 45.1633 170.394 45.11 170.434 45.07C170.481 45.0233 170.538 45 170.604 45H171.114C171.181 45 171.238 45.0233 171.284 45.07C171.331 45.11 171.354 45.1633 171.354 45.23V51.1H173.804V45.23C173.804 45.1633 173.824 45.11 173.864 45.07C173.911 45.0233 173.968 45 174.034 45H174.544C174.618 45 174.674 45.0233 174.714 45.07C174.761 45.11 174.784 45.1633 174.784 45.23V51.77C174.784 51.8367 174.761 51.8933 174.714 51.94C174.674 51.98 174.618 52 174.544 52H167.174ZM176.754 52C176.688 52 176.631 51.98 176.584 51.94C176.544 51.8933 176.524 51.8367 176.524 51.77V45.24C176.524 45.1667 176.544 45.11 176.584 45.07C176.631 45.0233 176.688 45 176.754 45H180.884C180.951 45 181.004 45.0233 181.044 45.07C181.091 45.11 181.114 45.1667 181.114 45.24V45.62C181.114 45.6867 181.094 45.7433 181.054 45.79C181.014 45.83 180.958 45.85 180.884 45.85H177.484V48.04H180.664C180.731 48.04 180.784 48.0633 180.824 48.11C180.871 48.15 180.894 48.2067 180.894 48.28V48.65C180.894 48.7167 180.871 48.7733 180.824 48.82C180.784 48.86 180.731 48.88 180.664 48.88H177.484V51.15H180.964C181.038 51.15 181.094 51.17 181.134 51.21C181.174 51.25 181.194 51.3067 181.194 51.38V51.77C181.194 51.8367 181.171 51.8933 181.124 51.94C181.084 51.98 181.031 52 180.964 52H176.754ZM182.819 52C182.752 52 182.695 51.98 182.649 51.94C182.609 51.8933 182.589 51.8367 182.589 51.77V45.24C182.589 45.1667 182.609 45.11 182.649 45.07C182.695 45.0233 182.752 45 182.819 45H183.329C183.402 45 183.459 45.0233 183.499 45.07C183.545 45.11 183.569 45.1667 183.569 45.24V48H187.009V45.24C187.009 45.1667 187.029 45.11 187.069 45.07C187.115 45.0233 187.172 45 187.239 45H187.749C187.822 45 187.879 45.0233 187.919 45.07C187.965 45.11 187.989 45.1667 187.989 45.24V51.77C187.989 51.8367 187.965 51.8933 187.919 51.94C187.872 51.98 187.815 52 187.749 52H187.239C187.172 52 187.115 51.98 187.069 51.94C187.029 51.8933 187.009 51.8367 187.009 51.77V48.9H183.569V51.77C183.569 51.8367 183.545 51.8933 183.499 51.94C183.452 51.98 183.395 52 183.329 52H182.819ZM189.957 52C189.891 52 189.834 51.98 189.787 51.94C189.747 51.8933 189.727 51.8333 189.727 51.76V45.24C189.727 45.1667 189.747 45.11 189.787 45.07C189.834 45.0233 189.891 45 189.957 45H190.477C190.544 45 190.597 45.0233 190.637 45.07C190.684 45.1167 190.707 45.1733 190.707 45.24V50.41L194.437 45.14C194.491 45.0467 194.574 45 194.687 45H195.177C195.244 45 195.297 45.0233 195.337 45.07C195.384 45.11 195.407 45.1667 195.407 45.24V51.77C195.407 51.8367 195.384 51.8933 195.337 51.94C195.297 51.98 195.244 52 195.177 52H194.667C194.601 52 194.544 51.98 194.497 51.94C194.451 51.8933 194.427 51.8367 194.427 51.77V46.64L190.707 51.86C190.654 51.9533 190.571 52 190.457 52H189.957ZM201.779 45C201.846 45 201.899 45.0233 201.939 45.07C201.986 45.11 202.009 45.1633 202.009 45.23V51.77C202.009 51.8367 201.986 51.8933 201.939 51.94C201.899 51.98 201.846 52 201.779 52H201.269C201.203 52 201.146 51.98 201.099 51.94C201.053 51.8933 201.029 51.8367 201.029 51.77V49.34H199.659L198.149 51.73C198.096 51.8233 198.043 51.8933 197.989 51.94C197.936 51.98 197.859 52 197.759 52H197.279C197.226 52 197.179 51.98 197.139 51.94C197.099 51.9 197.079 51.8533 197.079 51.8C197.079 51.7667 197.089 51.73 197.109 51.69L198.659 49.25C198.199 49.13 197.843 48.8933 197.589 48.54C197.336 48.1867 197.209 47.7367 197.209 47.19C197.209 46.8033 197.293 46.4433 197.459 46.11C197.633 45.7767 197.889 45.51 198.229 45.31C198.576 45.1033 198.996 45 199.489 45H201.779ZM201.029 45.84H199.569C199.143 45.84 198.809 45.9667 198.569 46.22C198.329 46.4667 198.209 46.7967 198.209 47.21C198.209 48.07 198.663 48.5 199.569 48.5H201.029V45.84Z" fill="#488558"/>
</g>
<defs>
<pattern id="pattern0" patternContentUnits="objectBoundingBox" width="1" height="1">
<use xlink:href="#image0" transform="scale(0.004)"/>
</pattern>
<clipPath id="clip0">
<rect width="205" height="64" fill="#488558"/>
</clipPath>
</defs>
</svg>
