<?xml version="1.0" encoding="UTF-8" standalone="no"?>
<!-- Created with Inkscape (http://www.inkscape.org/) -->
<svg
   xmlns:svg="http://www.w3.org/2000/svg"
   xmlns="http://www.w3.org/2000/svg"
   version="1.0"
   width="779.52753"
   height="409.25195"
   id="svg2">
  <defs
     id="defs4" />
  <g
     transform="translate(-14.95023,-492.62767)"
     id="layer1">
    <g
       transform="translate(16.998421,463.73745)"
       id="g3022">
      <path
         d="M 306.37103,225.76976 L 382.43405,225.76976 L 382.43405,172.8116 L 306.37103,172.8116 L 306.37103,225.76976 z "
         style="fill:#294189;fill-opacity:1;fill-rule:nonzero;stroke:none"
         id="path2673" />
      <path
         d="M 306.37103,116.70797 L 382.43405,116.70797 L 382.43405,63.7498 L 306.37103,63.7498 L 306.37103,116.70797 z "
         style="fill:#294189;fill-opacity:1;fill-rule:nonzero;stroke:none"
         id="path2675" />
      <path
         d="M 392.72829,116.70797 L 468.79131,116.70797 L 468.79131,63.7498 L 392.72829,63.7498 L 392.72829,116.70797 z "
         style="fill:#294189;fill-opacity:1;fill-rule:nonzero;stroke:none"
         id="path2677" />
      <path
         d="M 392.72829,225.76976 L 468.79131,225.76976 L 468.79131,172.8116 L 392.72829,172.8116 L 392.72829,225.76976 z "
         style="fill:#294189;fill-opacity:1;fill-rule:nonzero;stroke:none"
         id="path2679" />
      <path
         d="M 487.37814,168.50515 C 480.51531,181.66469 465.3599,182.76269 447.7453,182.76269 L 295.10455,182.78558 C 285.32503,182.78558 273.37226,182.89424 263.24959,187.22924 C 264.22183,184.71284 265.30844,181.84191 266.45225,178.74798 L 266.50943,178.74798 C 273.20069,165.62854 287.61263,164.58765 305.74194,164.58765 L 458.38269,164.54188 C 467.76189,164.54188 480.05779,164.53621 490.5236,159.97235 C 489.03666,164.11293 487.49252,168.13341 487.37814,168.50515"
         style="fill:#5bb6d7;fill-opacity:1;fill-rule:nonzero;stroke:none"
         id="path2683" />
      <path
         d="M 498.1299,139.63553 C 491.32427,152.79497 476.16885,153.91019 458.49707,153.91019 L 305.85632,153.95028 C 296.13398,153.95028 284.18122,154.01317 274.05855,158.37674 C 275.03078,155.83177 276.1174,153.00093 277.2612,149.87827 L 277.2612,149.88971 C 284.00965,136.77027 298.42159,135.7237 316.55089,135.7237 L 469.19164,135.69514 C 478.57084,135.69514 490.86674,135.65514 501.33256,131.09706 C 499.78842,135.24908 498.30147,139.29244 498.1299,139.63553"
         style="fill:#5bb6d7;fill-opacity:1;fill-rule:nonzero;stroke:none"
         id="path2687" />
      <path
         d="M 508.93886,110.766 C 502.07603,123.94256 486.97781,125.04066 469.30602,125.04066 L 316.66527,125.06922 C 306.94293,125.06922 294.99018,125.16076 284.8675,129.52433 C 285.83973,126.99657 286.86916,124.13131 288.07016,121.03162 L 288.07016,121.04307 C 294.81861,107.90641 309.17336,106.88273 327.30266,106.88273 L 480.0006,106.81985 C 489.32261,106.81985 501.6757,106.80264 512.14152,102.25608 C 510.54019,106.40811 509.11043,110.4057 508.93886,110.766"
         style="fill:#5bb6d7;fill-opacity:1;fill-rule:nonzero;stroke:none"
         id="path2691" />
      <path
         d="M 91.839009,310.10819 L 126.90807,310.10819 L 126.90807,401.70977 L 91.839009,401.70977 L 91.839009,367.93888 L 68.425324,367.93888 L 68.425324,401.70977 L 33.384865,401.70977 L 33.384865,310.10819 L 68.425324,310.10819 L 68.425324,341.77442 L 91.839009,341.77442 L 91.839009,310.10819"
         style="fill:#294189;fill-opacity:1;fill-rule:nonzero;stroke:none"
         id="path2695" />
      <path
         d="M 187.0722,330.53079 C 200.34033,330.53079 201.19818,346.34962 201.19818,355.91754 C 201.19818,365.46834 200.34033,381.28708 187.0722,381.28708 C 173.86126,381.28708 172.94621,365.46834 172.94621,355.91754 C 172.94621,346.34962 173.86126,330.53079 187.0722,330.53079 M 187.0722,308.56402 C 154.75971,308.56402 136.08138,326.72762 136.08138,355.91754 C 136.08138,385.09025 154.75971,403.2825 187.0722,403.2825 C 219.38468,403.2825 238.14308,385.09025 238.14308,355.91754 C 238.14308,326.72762 219.38468,308.56402 187.0722,308.56402"
         style="fill:#294189;fill-opacity:1;fill-rule:nonzero;stroke:none"
         id="path2699" />
      <path
         d="M 280.52104,328.69498 L 289.5571,328.69498 C 299.22225,328.69498 302.02457,333.6648 302.02457,337.45653 C 302.02457,340.10438 300.76639,346.34962 288.75643,346.34962 L 280.52104,346.34962 L 280.52104,328.69498 M 247.29352,310.10819 L 247.29352,401.70977 L 300.48044,401.70977 C 312.14724,401.70977 338.34037,400.38868 338.34037,377.23804 C 338.34037,362.83751 326.78795,356.81544 317.63751,355.53436 L 317.63751,354.97386 C 329.07556,352.88074 336.22434,344.38227 336.22434,333.92212 C 336.22434,325.41798 331.02002,310.10819 302.36772,310.10819 L 247.29352,310.10819 M 280.52104,364.41601 L 288.64206,364.41601 C 291.67314,364.41601 302.48209,364.41601 302.48209,373.68084 C 302.48209,376.99784 300.652,383.12289 289.38553,383.12289 L 280.52104,383.12289 L 280.52104,364.41601"
         style="fill:#294189;fill-opacity:1;fill-rule:nonzero;stroke:none"
         id="path2703" />
      <path
         d="M 396.27409,331.84053 L 405.82486,360.48707 L 386.32299,360.48707 L 395.75938,331.84053 L 396.27409,331.84053 M 373.11204,310.10819 L 341.08551,401.70977 L 376.14312,401.70977 L 382.26248,381.93344 L 409.77098,381.93344 L 416.06191,401.70977 L 452.94961,401.70977 L 420.35118,310.10819 L 373.11204,310.10819"
         style="fill:#294189;fill-opacity:1;fill-rule:nonzero;stroke:none"
         id="path2707" />
      <path
         d="M 538.10589,310.10819 L 538.10589,337.22777 L 507.22315,337.22777 L 507.22315,401.70977 L 472.16553,401.70977 L 472.16553,337.22777 L 441.34,337.22777 L 441.34,310.10819 L 538.10589,310.10819"
         style="fill:#294189;fill-opacity:1;fill-rule:nonzero;stroke:none"
         id="path2711" />
      <path
         d="M 595.12455,345.96085 C 593.58041,341.24267 588.89081,331.44023 571.21903,331.44023 C 568.07357,331.44023 559.43784,331.97207 550.68773,335.62657 L 550.68773,311.41793 L 552.6322,311.01763 C 563.49835,308.81008 570.81869,308.56411 576.02301,308.56411 C 622.63306,308.56411 631.66912,337.9999 631.66912,355.91763 C 631.66912,378.80519 616.17056,403.28259 576.99524,403.28259 C 567.2729,403.28259 557.89371,401.41822 550.68773,399.60529 L 550.68773,375.28222 C 561.49669,379.46289 570.41837,379.46289 572.01969,379.46289 C 590.66371,379.46289 594.49546,367.0526 595.12455,364.67918 L 563.49835,364.67918 L 563.49835,345.96085 L 595.12455,345.96085"
         style="fill:#294189;fill-opacity:1;fill-rule:nonzero;stroke:none"
         id="path2715" />
      <path
         d="M 677.19254,346.09231 L 677.70726,346.09231 L 699.26797,310.10819 L 739.18676,310.10819 L 708.30403,353.04093 L 742.04628,401.70977 L 700.18302,401.70977 L 677.70726,362.8376 L 677.19254,362.8376 L 677.19254,401.70977 L 642.13493,401.70977 L 642.13493,310.10819 L 677.19254,310.10819 L 677.19254,346.09231"
         style="fill:#294189;fill-opacity:1;fill-rule:nonzero;stroke:none"
         id="path2719" />
    </g>
  </g>
</svg>
